<?xml version="1.0" standalone="no"?>
<!DOCTYPE svg PUBLIC "-//W3C//DTD SVG 20010904//EN"
 "http://www.w3.org/TR/2001/REC-SVG-20010904/DTD/svg10.dtd">
<svg version="1.0" xmlns="http://www.w3.org/2000/svg"
 width="128.000000pt" height="128.000000pt" viewBox="0 0 128.000000 128.000000"
 preserveAspectRatio="xMidYMid meet">

<g transform="translate(0.000000,128.000000) scale(0.100000,-0.100000)"
fill="#000000" stroke="none">
<path d="M335 1026 c-48 -21 -71 -54 -120 -170 -31 -72 -58 -120 -81 -141 -44
-41 -54 -71 -54 -157 0 -77 18 -127 56 -157 22 -17 24 -26 24 -105 0 -79 2
-89 25 -111 23 -24 31 -25 135 -25 104 0 112 1 135 25 22 21 25 33 25 100 l0
75 160 0 160 0 0 -75 c0 -67 3 -79 25 -100 23 -24 31 -25 135 -25 104 0 112 1
135 25 23 22 25 32 25 111 0 79 2 88 24 105 38 30 56 80 56 157 0 86 -10 116
-54 157 -23 21 -50 69 -81 141 -50 118 -72 149 -122 170 -46 20 -564 19 -608
0z m594 -83 c11 -10 36 -55 55 -100 l35 -83 -379 0 -379 0 35 83 c19 45 44 90
55 100 19 15 49 17 289 17 240 0 270 -2 289 -17z m166 -288 c37 -36 37 -154 0
-190 l-24 -25 -431 0 -431 0 -24 25 c-22 21 -25 33 -25 95 0 62 3 74 25 95
l24 25 431 0 431 0 24 -25z m-695 -355 l0 -60 -80 0 -80 0 0 60 0 60 80 0 80
0 0 -60z m640 0 l0 -60 -80 0 -80 0 0 60 0 60 80 0 80 0 0 -60z"/>
<path d="M285 628 c-51 -29 -60 -84 -20 -123 48 -49 135 -15 135 52 -1 32 -15
55 -47 71 -27 15 -42 15 -68 0z"/>
<path d="M925 628 c-51 -29 -60 -84 -20 -123 48 -49 135 -15 135 52 -1 32 -15
55 -47 71 -27 15 -42 15 -68 0z"/>
<path d="M492 588 c-6 -6 -12 -20 -12 -29 0 -34 24 -40 165 -37 119 3 139 5
149 21 8 12 8 22 0 35 -10 15 -31 17 -150 20 -100 2 -143 -1 -152 -10z"/>
</g>
</svg>
